<svg xmlns="http://www.w3.org/2000/svg" viewBox="0 0 64 64" fill="none">
  <defs>
    <linearGradient id="fg" x1="0%" y1="0%" x2="100%" y2="100%">
      <stop offset="0%" stop-color="#3B82F6"/>
      <stop offset="100%" stop-color="#06B6D4"/>
    </linearGradient>
  </defs>
  <!-- Shield -->
  <path d="M32 6 L54 16 L54 32 C54 44 44 53 32 57 C20 53 10 44 10 32 L10 16 Z"
        fill="url(#fg)" opacity="0.18"/>
  <path d="M32 6 L54 16 L54 32 C54 44 44 53 32 57 C20 53 10 44 10 32 L10 16 Z"
        fill="none" stroke="url(#fg)" stroke-width="2" stroke-linejoin="round"/>
  <!-- Central AI dot -->
  <circle cx="32" cy="30" r="6" fill="#3B82F6"/>
  <circle cx="32" cy="30" r="3.5" fill="#60A5FA"/>
  <!-- Neural lines -->
  <g stroke="url(#fg)" stroke-width="1.2" opacity="0.5">
    <line x1="32" y1="30" x2="22" y2="22"/>
    <line x1="32" y1="30" x2="42" y2="22"/>
    <line x1="32" y1="30" x2="22" y2="38"/>
    <line x1="32" y1="30" x2="42" y2="38"/>
    <line x1="32" y1="30" x2="32" y2="44"/>
  </g>
  <!-- Outer nodes -->
  <circle cx="22" cy="22" r="3" fill="#3B82F6"/>
  <circle cx="42" cy="22" r="3" fill="#06B6D4"/>
  <circle cx="22" cy="38" r="3" fill="#06B6D4"/>
  <circle cx="42" cy="38" r="3" fill="#3B82F6"/>
  <circle cx="32" cy="44" r="3" fill="#22D3EE"/>
</svg>
